<svg width="297px" height="68px" viewBox="0 0 297 68" version="1.1" xmlns="http://www.w3.org/2000/svg" xmlns:xlink="http://www.w3.org/1999/xlink"><g id="sports-logo" stroke="none" stroke-width="1" fill="none" fill-rule="evenodd" transform="translate(-82.000000, -82.000000)"><g id="sports-logo-full" transform="translate(82.000000, 82.000000)" fill-rule="nonzero"><path d="M26,47.68 L30.231,41.844 C33.406,44.569 38.166,46.321 42.463,46.321 C45.769,46.321 48.083,45.217 48.083,42.947 C48.083,40.547 46.231,39.64 41.405,38.797 C34.728,37.63 27.587,36.073 27.587,27.964 C27.587,21.022 33.407,17 41.272,17 C48.478,17 52.842,18.817 56.744,21.868 L52.579,27.768 C49.009,25.368 45.504,24.007 42.199,24.007 C39.157,24.007 37.438,25.174 37.438,27.057 C37.438,29.131 39.355,29.976 43.718,30.753 C50.662,31.921 58,33.478 58,41.327 C58,49.693 50.595,53 42.463,53 C34.728,53 29.57,50.669 26,47.68 Z M85.38,34.939 C85.38,29.195 83.332,25.579 78.582,25.579 C75.877,25.579 73.436,27.196 71.655,28.936 L71.655,41.646 C73.963,43.773 75.877,44.809 78.715,44.809 C83.136,44.809 85.379,41.196 85.379,34.939 L85.38,34.939 Z M82.475,17 C90.46,17 96,23.002 96,34.87 C96,46.745 90.393,52.612 82.343,52.612 C77.593,52.612 74.293,50.936 71.655,48.035 L71.655,65 L60.99,65 L60.99,27.002 C60.99,22.872 60.726,20.357 60,18.614 L70.4,17 C70.93,18.229 71.39,21.388 71.39,23.325 C73.702,20.227 77.263,17 82.477,17 L82.475,17 Z M124.365,35.098 C124.365,29.326 122.317,24.654 117.033,24.654 C111.947,24.654 109.635,28.871 109.635,35.098 C109.635,40.872 111.617,45.671 117.033,45.671 C122.055,45.671 124.365,41.39 124.365,35.098 Z M99,35.036 C99,21.477 108.445,17 117.033,17 C125.555,17 135,21.477 135,35.036 C135,48.46 125.555,53 117.033,53 C108.513,53 99,48.46 99,35.036 Z M150.372,23.692 C152.27,20.796 155.732,17 161.682,17 C162.14,17 163,17.13 163,17.13 L162.217,26.2 C162.14,26.136 160.439,26.01 159.784,26.01 C155.603,26.01 152.464,28.197 150.504,30.706 L150.504,52 L139.98,52 L139.98,26.975 C139.98,22.856 139.72,20.347 139,18.609 L149.263,17 C149.785,18.225 150.242,21.763 150.242,23.692 L150.372,23.692 Z M184.155,43.794 C185.933,43.794 188.039,43.414 188.96,43.159 L191,50.539 C189.16,51.174 186.329,52 181.128,52 C170.729,52 170.53,46.466 170.53,40.103 L170.53,25.825 L165,25.825 L165.642,16.995 L170.53,16.995 L170.53,7.907 L181.062,6 L181.062,16.995 L190.08,16.995 L190.08,25.825 L181.062,25.825 L181.062,39.15 C181.062,42.138 181.786,43.794 184.155,43.794 Z M192,47.68 L196.232,41.844 C199.404,44.569 204.164,46.321 208.462,46.321 C211.767,46.321 214.082,45.217 214.082,42.947 C214.082,40.547 212.232,39.64 207.404,38.797 C200.725,37.63 193.587,36.073 193.587,27.964 C193.587,21.022 199.404,17 207.273,17 C214.479,17 218.843,18.817 222.743,21.868 L218.578,27.768 C215.008,25.368 211.504,24.007 208.198,24.007 C205.158,24.007 203.437,25.174 203.437,27.057 C203.437,29.131 205.355,29.976 209.72,30.753 C216.661,31.921 224,33.478 224,41.327 C224,49.693 216.595,53 208.461,53 C200.725,53 195.571,50.669 192,47.68 Z M248.374,23.692 C250.27,20.796 253.733,17 259.68,17 C260.138,17 261,17.13 261,17.13 L260.215,26.2 C260.138,26.136 258.439,26.01 257.785,26.01 C253.602,26.01 250.464,28.197 248.503,30.706 L248.503,52 L237.982,52 L237.982,26.975 C237.982,22.856 237.72,20.347 237,18.609 L247.263,17 C247.786,18.225 248.243,21.763 248.243,23.692 L248.374,23.692 Z M285.426,46.636 C283.32,49.298 279.376,53 273.26,53 C267.276,53 263,50.079 263,42.932 L263,17 L273.589,17 L273.589,39.88 C273.589,42.997 274.772,44.683 277.729,44.683 C280.557,44.683 282.994,43.195 285.36,41.179 L285.36,17 L295.947,17 L295.947,42.218 C295.947,46.374 296.211,49.555 297,51.313 L286.412,53 C285.886,51.638 285.558,48.392 285.558,46.636 L285.426,46.636 Z" id="Shape" fill="#FFFFFF"></path><path d="M6,12 C2.697,12 0,9.236 0,5.931 C0,2.63 2.697,0 6,0 C9.302,0 12,2.63 12,5.931 C12,9.236 9.302,12 6,12" id="Shape" fill="#FF003C"></path><path d="M6,26 C2.697,26 0,23.236 0,19.931 C0,16.63 2.697,14 6,14 C9.302,14 12,16.629 12,19.931 C12,23.236 9.302,26 6,26" id="Shape" fill="#FFC300"></path><path d="M6,40 C2.697,40 0,37.236 0,33.931 C0,30.632.697,28 6,28 C9.302,28 12,30.629 12,33.931 C12,37.236 9.302,40 6,40" id="Shape" fill="#00AA32"></path><path d="M6,54 C2.697,54 0,51.236 0,47.932 C0,44.63 2.697,42 6,42 C9.302,42 12,44.63 12,47.932 C12,51.236 9.302,54 6,54" id="Shape" fill="#00A0F0"></path><path d="M230,53 C226.697,53 224,50.236 224,46.931 C224,43.63 226.697,41 230,41 C233.302,41 236,43.63 236,46.931 C236,50.236 233.302,53 230,53" id="Shape" fill="#FFFFFF"></path><path d="M6,68 C2.697,68 0,65.236 0,61.931 C0,58.63 2.697,56 6,56 C9.302,56 12,58.63 12,61.931 C12,65.236 9.302,68 6,68" id="Shape" fill="#964BA0"></path></g></g> </svg>